/* XPM */
static char *_114898d94eb416deb4c589d0cd26eecNKt4BNvoixZESQX5[] = {
/* columns rows colors chars-per-pixel */
"45 45 227 2 ",
"   c None",
".  c #0E090A",
"X  c #0D0607",
"o  c #130C0C",
"O  c #180F0F",
"+  c #130A05",
"@  c #160F10",
"#  c #1B1313",
"$  c #1A1415",
"%  c #151113",
"&  c #241B1B",
"*  c #291C16",
"=  c #23160E",
"-  c #34231A",
";  c #342215",
":  c #29211F",
">  c #261E20",
",  c #272222",
"<  c #2A2424",
"1  c #2E292A",
"2  c #2C2429",
"3  c #322B2B",
"4  c #3F2920",
"5  c #3C322E",
"6  c #36302F",
"7  c #2F2E30",
"8  c #353232",
"9  c #3A3535",
"0  c #3C3936",
"q  c #3D3A3C",
"w  c #3D3738",
"e  c #4E331B",
"r  c #6A3B18",
"t  c #432F20",
"y  c #40352F",
"u  c #513928",
"i  c #443A36",
"p  c #493D37",
"a  c #413D3C",
"s  c #4C3B3C",
"d  c #533F38",
"f  c #45413E",
"g  c #4A413B",
"h  c #5B473C",
"j  c #5A432E",
"k  c #67452B",
"l  c #784B28",
"z  c #674B33",
"x  c #775638",
"c  c #6D543D",
"v  c #433F42",
"b  c #444244",
"n  c #4B4543",
"m  c #4A4A4B",
"M  c #4C4847",
"N  c #544E4B",
"B  c #554A44",
"V  c #5E5149",
"C  c #51504E",
"Z  c #534F51",
"A  c #535253",
"S  c #5A5955",
"D  c #6B584B",
"F  c #745946",
"G  c #635B56",
"H  c #785D53",
"J  c #68615E",
"K  c #7A6759",
"L  c #7C604A",
"P  c #5B5D60",
"I  c #8B4315",
"U  c #9E521E",
"Y  c #90572A",
"T  c #A65F2A",
"R  c #95633C",
"E  c #8F6239",
"W  c #A8673A",
"Q  c #B36A36",
"!  c #BC7237",
"~  c #B16025",
"^  c #8C5F40",
"/  c #886549",
"(  c #886C56",
")  c #9C7655",
"_  c #95765B",
"`  c #9B7A5E",
"'  c #8C705B",
"]  c #A97347",
"[  c #B4794B",
"{  c #BB7B4C",
"}  c #B67847",
"|  c #A67A53",
" . c #B97E54",
".. c #B67A53",
"X. c #8D7564",
"o. c #85736A",
"O. c #967A67",
"+. c #837269",
"@. c #C07D4A",
"#. c #AD8057",
"$. c #BD865B",
"%. c #BE895D",
"&. c #B68457",
"*. c #9D8C7A",
"=. c #AA8363",
"-. c #A88869",
";. c #B78C66",
":. c #BB926B",
">. c #A68A73",
",. c #AC8E71",
"<. c #B18E71",
"1. c #AC9079",
"2. c #B69A7E",
"3. c #B99573",
"4. c #C4834A",
"5. c #CD8A4E",
"6. c #CA854A",
"7. c #C38553",
"8. c #C68954",
"9. c #CB8D52",
"0. c #C88C5D",
"q. c #CC915D",
"w. c #D3904D",
"e. c #C28D63",
"r. c #C78F69",
"t. c #C39163",
"y. c #C3946C",
"u. c #CD9B6C",
"i. c #CB9566",
"p. c #D59B64",
"a. c #D39C6A",
"s. c #D59962",
"d. c #C49A74",
"f. c #CC9C74",
"g. c #C39C7A",
"h. c #C79B77",
"j. c #D19E71",
"k. c #D09F7C",
"l. c #DBA26C",
"z. c #DBA169",
"x. c #CEA077",
"c. c #CDA37D",
"v. c #C2A07D",
"b. c #D4A174",
"n. c #D9A473",
"m. c #D3A57B",
"M. c #DCA97C",
"N. c #D9A779",
"B. c #E3AE7C",
"V. c #A79589",
"C. c #B69A86",
"Z. c #A48880",
"A. c #BEA286",
"S. c #BAA694",
"D. c #ADA398",
"F. c #BEB4AB",
"G. c #B3ACA5",
"H. c #C4A283",
"J. c #CBA582",
"K. c #CBA987",
"L. c #D5AA84",
"P. c #DAAD83",
"I. c #D3AD8B",
"U. c #D9AF8A",
"Y. c #D2A684",
"T. c #DCB48D",
"R. c #DCB084",
"E. c #C6AB95",
"W. c #CEB095",
"Q. c #CEB59C",
"!. c #D4B293",
"~. c #DCB592",
"^. c #DFBA96",
"/. c #DCBB9B",
"(. c #D3BA9E",
"). c #E1AE86",
"_. c #E2B285",
"`. c #E3B58B",
"'. c #E4B88F",
"]. c #E5BC95",
"[. c #E3BE9B",
"{. c #C9BAAC",
"}. c #D4BCA3",
"|. c #D5B7A2",
" X c #C8BDB2",
".X c #E4C19C",
"XX c #EBC29A",
"oX c #DAC2A9",
"OX c #CAC2B8",
"+X c #D4C4B4",
"@X c #DBC9B6",
"#X c #E3C3A3",
"$X c #EBCBAB",
"%X c #E9C9A7",
"&X c #E6CEB1",
"*X c #E1CEBF",
"=X c #EDD5BA",
"-X c #E7D2B9",
";X c #F2D8BA",
":X c #F2CFAC",
">X c #C5C3C4",
",X c #CBC9CB",
"<X c #D7CDC2",
"1X c #D9D3C9",
"2X c #D7D5D5",
"3X c #DDDCDC",
"4X c #D8D6D6",
"5X c #E5D4C5",
"6X c #F0DCC5",
"7X c #E2DCD3",
"8X c #E5DFD9",
"9X c #EBE2D3",
"0X c #E6E3DB",
"qX c #EBE5DA",
"wX c #EDE8DE",
"eX c #E4E2E2",
"rX c #ECEAE3",
"tX c #EFEEE9",
"yX c #F2EDE4",
"uX c #EFF0EB",
"iX c #F4F3EC",
"pX c #F8F5ED",
"aX c #F6F6F2",
"sX c #F8F7F3",
"dX c #F7F8F2",
"fX c #FAFAF5",
"gX c #FFFFFF",
/* pixels */
"                                                                      x.u.a.^.            ",
"                                                                    a.T I W Q m.          ",
"                                                                  Q I ! ~ @.6.8.=X        ",
"                                                                [.U Q 5.9.q.l.e.[.        ",
"                                                                0.U e.Y.6.n.$.% ~.        ",
"                                                              N } ] r.k.e.N.'.; s.+X      ",
"gXfX                                                          /.s. .h.r.@.).p.B.n.n.1X    ",
"gXfX8X                                                      n o Y...W  .9.].XX:X%Xb.<X3   ",
"  fXS.z                                                     8 X  ...0.r.{ %X6X;X;XyXiX9   ",
"    / / /                                                   < + f.e.;.r.u.%X%X;X=XL.OXD   ",
"      ) F X.                                              f g * Y.Y. .Q r.6X6X6X$X#X{.o.  ",
"      <._ ` L                                             : p + f.L.e.} 0.!.s Z.9X@XF.    ",
"        =.C.F `                                         C + ; t ; i.f.$.tX1Xh.H X.Z.O.    ",
"          ) v.<.V.                                    0 - - e x l ;.e.E.aX    8X5X X      ",
"            >.O.1.                                m a V :.W / | &.l r a.rX                ",
"              C.j u                           8 0 o , S E P.8.E k ! l W                   ",
"                h z               B a n A 0 1 1 , . J K | 5.a.&.R ] &.oX                  ",
"                K u =     G g J S C w m P b 2 7 % . 3 ' c.b.z._.p.| 6.y.                  ",
"                  F y o.V f G 0 M 8 9 1 A A q v % . & 1.[ c.N.p.p.B.6.j.                  ",
"                  c z -.F p < q 3 8 w 0 b m A v $ X # +.v.j.T.z.).B.w.n.                  ",
"                  ' ;.-.<.V a C 0 A m v q q q 2 % o . o x.#X.X]._.'.).M.                  ",
"                  ;.g.| <.F g f b 3 A 1 3 9 9 2 , o O + j &.b.[.].B._.q.                  ",
"                  =.Y E.W.) g S 0 f w , 2 > M q 8 > # o - &.x.R._.`.z.p.                  ",
"                  A.H.A.y.] X.C w q 1 < 3 9 1 9 b q q m b }.h.N.'.z.l.s.                  ",
"                W.oX3.3.x.{ #.N n , & $ O < & 8 8 9 b w M #.d.P.`.`.[.5.                  ",
"                oX3.J.3.%.} m.K 3 w > O = O & < , 0 w Z & ].p.i.M.`.B.s.P..X              ",
"                3.3.(.W.y.q.R.>.n w > & $ $ & 6 5 $ i V L.H.m.9._.P.p.w.`.b.&X            ",
"                _ 3.y.J.c.b.M.#XK g * # > & 3 * 5 i - T.-X}.E i.b.l.B.p.U.iXfX            ",
"                2.:.v.~.T.9.z.&X#X) i & : O y O 9 4 H..X#X%XT.L.l.%X_.p.9.iXiXwX          ",
"                ( v.j.U.T.4..X>.+X5XQ.i O * * d h #.!.%X^.~.^.1XT.P.[._.j.4.wX|.          ",
"                -.:./.m.T.8.#XV.S.OXK.S.u D / -.| !.I.W.m./.eX    '.[.`.N.q.8.qXwX        ",
"                -.0.U.x.~.n. XOX<XOX*X(.@XI.H.W.J.Q.@XrXrX0X        P.[.).s.q.@X*X        ",
"                | e.m.b.oXb.C.D.{.OXF.                                m.'.R.n.sX0X>.      ",
"                ] $.j.T.~.^.2.-.F.OXS.                                  c.U.sXfXfXS.      ",
"               .] $.u.U.[.  }.oX4XtX5X                                      sXfXpXpXgX    ",
"            { R } e.h.m.!.  oX%X=XsX                                          fXpXpXiXyX<X",
"            I.} ;.c.x.      &X-XsX^.                                            fXyXwXC.*.",
"            d.x.U.          $X=XfX                                                0XQ.`   ",
"            K.a.            ~.fX                                                          ",
"            }.fX          T.rXfX                                                          ",
"            rXdXrX        ~.}.sXiX                                                        ",
"              sXyX          v.iXsXiXaX                                                    ",
"              rXqX9X          rXtX0XrXyX9X                                                ",
"              1XqX(.7X3XeXeXeX4XOX3X@X<.V.3X                                              ",
"            >X+. X XG.2X3X4X,X,X>X>X,X,X2XeX                                              "
};
