/* XPM */
static char *df947db92adf402e9c61c9c9910aba82k9dfKfsKndrFYJ8c[] = {
/* columns rows colors chars-per-pixel */
"45 45 114 2 ",
"   c None",
".  c #27130F",
"X  c #2B120E",
"o  c #35140E",
"O  c #2C1613",
"+  c #2C1915",
"@  c #2E1C19",
"#  c #321410",
"$  c #3E1611",
"%  c #331A14",
"&  c #3B1A14",
"*  c #331D19",
"=  c #3B1E19",
"-  c #34221E",
";  c #3C221D",
":  c #352521",
">  c #3B2622",
",  c #372A27",
"<  c #3C2925",
"1  c #3D2D29",
"2  c #3F302C",
"3  c #431C15",
"4  c #4B1B13",
"5  c #541D16",
"6  c #442117",
"7  c #4F2017",
"8  c #43231C",
"9  c #4B241D",
"0  c #52251D",
"q  c #502A1F",
"w  c #5C291F",
"e  c #432621",
"r  c #4A2722",
"t  c #442A25",
"y  c #4B2B24",
"u  c #452D29",
"i  c #4B2E29",
"p  c #502620",
"a  c #522C24",
"s  c #5A2D25",
"d  c #532F28",
"f  c #5A2F29",
"g  c #4D3323",
"h  c #45312D",
"j  c #4C322C",
"k  c #54332C",
"l  c #5B342C",
"z  c #55382F",
"x  c #5B392F",
"c  c #463631",
"v  c #4C3632",
"b  c #4D3935",
"n  c #4D3B38",
"m  c #533631",
"M  c #5A3630",
"N  c #543A34",
"B  c #5C3B34",
"V  c #543D39",
"C  c #5A3F39",
"Z  c #642E24",
"A  c #63362E",
"S  c #68372D",
"D  c #64392F",
"F  c #6C392E",
"G  c #703428",
"H  c #76392C",
"J  c #633C33",
"K  c #6A3C33",
"L  c #613F39",
"P  c #5B4534",
"I  c #55413C",
"U  c #5C423D",
"Y  c #654037",
"T  c #6C4136",
"R  c #63433C",
"E  c #6B433A",
"W  c #6D483E",
"Q  c #714236",
"!  c #74463B",
"~  c #784438",
"^  c #734A3E",
"/  c #554440",
"(  c #5C4541",
")  c #5D4944",
"_  c #634641",
"`  c #684640",
"'  c #644944",
"]  c #6B4B44",
"[  c #604D48",
"{  c #6C4E48",
"}  c #744C43",
"|  c #7A4D42",
" . c #704F48",
".. c #66504B",
"X. c #6D524B",
"o. c #775147",
"O. c #785046",
"+. c #73534B",
"@. c #7C554A",
"#. c #77584E",
"$. c #7D594F",
"%. c #6F5752",
"&. c #725650",
"*. c #765952",
"=. c #7B5A51",
"-. c #813B2D",
";. c #865143",
":. c #835D53",
">. c #885E53",
",. c #836157",
"<. c #8B6156",
"1. c #866159",
"2. c #8B655A",
"3. c #90665B",
/* pixels */
"        4                 &                 &                 9                 3         ",
"      6 r r             7 k 8             8 K r             9 l y             9 ; 0       ",
"    6 M U M 9         = i R E 6         8 d ] i 6         a B v Y F         9 z h k 9     ",
"  . B C _ U J G     % x { U :.t H     X d V ' V e H     # B C 2 <.k -.    % z N &.C u F   ",
"  > ' V ( ( U y     j N [ _ :.C d     a } _ n ] v l     y R _ U 2.R k     j I U ,.n b z   ",
"  1 +.( I '  .t     h U N U _ I k     j $.] :._ B E     l / ' *._ c B     z I U 2.] N |   ",
"  m +./ +.U ' j     B { ] C U b M     t ] ] ..U R !     j :.' ' X.U J     Y U I N h V ^   ",
"  ^ &.C / U ' m     T U _ R I ( k     j ' ' ) ) _ `     z :.( U [ U M     b R [ ) c V O.  ",
"  Y X.I _ b ..N     L _ _ / I ( M     M ) ' U ( ] }     M +.' X.>.:.M     R U %.{ { ' ;.  ",
"  j X.{ b _ >.v     N ' X.U V ( m     N [ ' #._ U W     E +.] =.#.X.x     ] _ *.{ U +.|   ",
"N c ..I U V { Y : 1 L ] ..v v ' U @ : C =.{ ' ] ( R > u V X.' ] +.{ { > k n X.X.o.n +.} u ",
"j / ) _ b b ..V u u V _ :.I V U V j V n 2.] *.( V C u c U ' { _ X.U R 1 h ' X.) +.( +.o.: ",
"n =.=.{ P U / [ b n [ ( 2.P _ _ ' 1 1 ( 2.' P / _ _ h b { >.U P { X.X.U V { &.X.P U +.+.v ",
"V U / +.' V ) [ : U ..I +.$.U ] ) b C ] ,.+.I { +.' , h ] 1.U b &.:.) 1 1 V &.X.b 1.(  .m ",
"j h ) ' V ' / b : t o.V %.o.V { _ > < R R :.V ' ] C > ; E =.U I X.U U u i c ( &.h ' V ] u ",
"  b { V ] _ b >     C _ #.v b ] J     v U 1.U _ ( N     R ..U [ >.] |     m C X.c  .b J   ",
"  M ] V ( V R i     M  .>.c N N C     j V <.U { N i     t { U U ' I M     M R X.+.V n M   ",
"  m _ _ ' _ v k     v  .$.v C N C     J U @.] U u j     t $.I +.2.{ u     k ] { R =.V B   ",
"  j V B _  .C i     J  .] n N v T     T U ] , V h u     u U b _ ( ) u     z ] b V ' ' B   ",
"  k V _ U _ N >     K O.U v N N E     ! P ..v ] b i     u v j ..X.o.y     k ] ] c #._ }   ",
"  K R R ( ' u t     i @.N V U v L     J ] X.*.] b i     j c v n [ ) >     J ] { ` C C E   ",
"  j R R _ ' c y     E ` N n ` V K     K :.U U R B u     e v U ) { B =     C } N , V V E   ",
"  k C R R +.v k     B R N h R V E     B Y b b N C <     t b C U ' R >     k o.u b ] V J   ",
"  k V _ E X.h x     d V b u ` L K     M P h U ] V t     e _ N X./ C k     M | v i V ` B   ",
"  k C B C R m B     y C N , ] C J     z N M N ] m u     > R Y $.I N k     k o.] 1 R @.k   ",
"  J B N L ` N A     t Y j : ` m f     l I I N v m t     e U C @.U N x     z o.C j ] Y j   ",
"  j m M J ] z a     u B c < j N l     x P V B { u e     z V N k U h y     d } t v R R y   ",
"  f k v C { j k     t k u N u m f     k k N J R m e     N N v , V j d     z } i , I j T   ",
"  K v B R } L z     e N h M h j a     k j j B P C y     t Y C h N j J     A E : C V < T   ",
"  y N J Y B j Z     r v t h i N y     y N { ^ _ N t     f E B b L v a     k } g k I u ~   ",
"  Y j i L } j d     e k u i N M y     k v P N Y N >     A B R h k k y     d R Y x I h ~   ",
"  Q N u K C k d     r j 1 m M M e     y j k Y B z y     x N C > m i y     y v R - I j S   ",
"  D k j k M M k     r i i i W m y     l P R J N z t     y u B - B i y     ; m V M V j T   ",
"  a u h t k m t     a i m m K l s     K j W J C t r     s N k Y N N r     e u V h N ! d   ",
"  y y j u k h 8     a u m e m d d     x L M B M t a     k N u o.| N 8     d J N z Y ^ l   ",
"* A k i t e m J % 6 i i u r i M k % = u B M B z M z O * B z t W J k e O = d J P D ^ L x ; ",
"k K k M > > M J e r u i u u i k z @ @ v N i E z k z 8 * i L i > k i t @ e d E W B B B M @ ",
"Y | M k y e N B i d i t e * M l b % @ ! ^ j g k i d * : i B F y l t e y t t y ! g x l J t ",
"; T y M < t j e O * d e i e S A k @ ; L Y k B j > a @ ; l i J v J d y = 8 k k T k J D J e ",
"& z k i y i j K O O = m u M K A f O = l M j y j : a O = t d z K A k d = * r i K x L k l . ",
"  r A i e l K y     = k y d K K a     r k k t j t 9     t y B K k l s     8 e J d ~ t s   ",
"  p A y t y l Z     w l e d S l 0     f k d g z y 9     6 y - t k d y     y y x Y J a w   ",
"  8 y d d A l 6     A D l t k 9 0     Z k 8 ;.k t y     ; t k y S s 8     a > k l z a a   ",
"  0 ; p e a 9 0     r A y 9 9 = w     w a y l y 9 0     = ; * 8 s 9 3     & 6 e q a r 7   ",
"  4 8 8 = 6 = o     q q 6 $ 5 X 4     5 q 9 3 & 6 0     = 3 O 6 5 & o     o o % 4 % $ 4   "
};
