/* XPM */
static char *_9ffc496177e4b2cd11512a7aa05c5e0509aWcLnvvjbMIy3[] = {
/* columns rows colors chars-per-pixel */
"45 45 69 1 ",
"  c #66D647",
". c #69D746",
"X c #67D847",
"o c #69D947",
"O c #66D749",
"+ c #69D749",
"@ c #67D84A",
"# c #69D949",
"$ c #71DE4A",
"% c #76E24B",
"& c #7AE34B",
"* c #7EEB4D",
"= c #83E74B",
"- c #83ED4E",
"; c #84EF4F",
": c #87EF4F",
"> c #8CE94B",
", c #8BE84C",
"< c #8CEB4C",
"1 c #8CEB4E",
"2 c #8DED4E",
"3 c #90EB4D",
"4 c #92EF4F",
"5 c #94EE4D",
"6 c #9CEF4E",
"7 c #85F04F",
"8 c #85F34F",
"9 c #87F24E",
"0 c #89F24F",
"q c #94F14E",
"w c #95F14E",
"e c #83ED50",
"r c #85EE51",
"t c #87EE50",
"y c #92ED50",
"u c #95ED52",
"i c #86F050",
"p c #86F250",
"a c #87F250",
"s c #88F150",
"d c #94F151",
"f c #9AF050",
"g c #9BF650",
"h c #9CF651",
"j c #9DF850",
"k c #9FF851",
"l c #A4F44E",
"z c #A1F84F",
"x c #A5F551",
"c c #A6F450",
"v c #A6F651",
"b c #A7F752",
"n c #A8F750",
"m c #A1F952",
"M c #A8F851",
"N c #ADFB51",
"B c #AFFD50",
"V c #B3FC51",
"C c #B3FC53",
"Z c #B6FC52",
"A c #B7FF52",
"S c #B4FC54",
"D c #B7FC55",
"F c #B7FF54",
"G c #B9FE50",
"H c #BAFC53",
"J c #BFFE53",
"K c #B9FE55",
"L c #BBFF54",
/* pixels */
"##;i#$q#####i&###-#O$####ii##%$#@##@;#####$##",
"#8Xi##q##X#i#%#b#####i###s###%OqK##@r########",
"r8++%####OX#####i+#########X#X#5###+###;#r##+",
"###J#####OJ##X##s8####& i#####O1####A#-;##8#A",
"####&#e##@#,+###8;###+&.##.####1###5#&r;###o#",
"#####;$#e@##A####+######.############o#######",
"###G##$#####A+.###G#########;*####F#+#######$",
"#######@@ii###j4##G#b##+&K.##*#+X####@##.####",
"%#=&#;#0#8####g#$#A#####.Kl#X-#&i##%%h##4K*#$",
"##NK>####0####g#s#$###:#fK+###@*s###hjX+$$#i#",
"8#NK##+#C.##i#.#s###%#8#&KX##*## s##@O-8+#@##",
"r#NA########i###0#####8##J###$#yo#r+##er##B##",
"+o###+######s##############r $####88####h####",
"1&#+##-##OX###A=##.#%####&###$X&G#+#@u###=###",
"#X#8+#+##@####F#G###*r####8#X##1####FA@#=####",
"AK#8#####@X###F###@######8s####>####CF##O#i.r",
"F#+8#K+####*8###@###%####88##o0########+#####",
"+######+##O*####rr#########$K$.o########.####",
"-+*##bn###&%###&#;#b#######&K+#*###$$##8-#+#*",
"O###2KM##@####r##r#####X$###Kb#&##+####r%#+##",
"#X##+An##i####r###+####O-r##J&#&#####r#####K#",
"#r;##Al###o##y####8#####-###G+#####O#######+#",
"#s#####0###&####2%#&yA#%*%##&###%##.##3#%####",
"#s###@#####er##+####b##r-8+r#######+rA$#@O.##",
"######F#+#######K###&o##++##+#A4#8+0#.$###XXA",
"####&i##V #####l+###&###*#r###+>#####.&##### ",
"####%###Cb#####bO######j%#-8##&1##O##K%G###X#",
"d###%###A######bO##;###@##+-o#H1##X##$$$#####",
"@+#@&#@####$K#X###@O-######r### #$+#########r",
"##########X###s*#r#######K###############i###",
"########Xo####8####O#############qX##i@##o###",
"##8##X##r##&##r##&i@-#3####=.####;@#ii%o##$#+",
"#####h##i#hqX#o###o###1#####z#8&#$#####r#####",
"#r###mj#-##qX###8#####4#%r hmX8%#$m####0#X##$",
"##eX#jd####q#s#n###o####$##hm####$+##X##&####",
"##;##d#X#@&########X####$###q#############f##",
"##8####-##&--#K6###d8###%@####%########*&#g##",
"@###4.#i#X+#;+#b#o#b%####X#+#eX##+#X.##+@#f#i",
"####1O#i#A#$.# &##o# Xo####S#*r#####B###*@X#0",
"###o3K#i###$###&#o####%-&XFV#*#########+X@###",
";###1G##3#############%##%XS####h######&X####",
"#X##+#Xm#j@#########%#&###@@#################",
"###s#########@####@K&########u###@##8A##&####",
"##;i#############X#@@X#i###eO%j####s#####K%K#",
"######dq#####%X$###@b#####i##%#####8######$#-"
};
