/* XPM */
static char *_0042f1ee3124cb0f8e0fc2fb4db6186kPwyusCRkGOaabNF[] = {
/* columns rows colors chars-per-pixel */
"45 45 124 2 ",
"   c None",
".  c #760302",
"X  c #7C0202",
"o  c #7E0A09",
"O  c #7B1F0C",
"+  c #830304",
"@  c #8D0603",
"#  c #810908",
"$  c #841509",
"%  c #8E1F1A",
"&  c #90220E",
"*  c #932310",
"=  c #972B13",
"-  c #992B13",
";  c #9C3416",
":  c #9F3618",
">  c #93362C",
",  c #98352D",
"<  c #973F35",
"1  c #9F441B",
"2  c #A7461C",
"3  c #AB4F21",
"4  c #AD5321",
"5  c #A65129",
"6  c #BA6728",
"7  c #B9692B",
"8  c #BC732D",
"9  c #C1772E",
"0  c #AD6756",
"q  c #B16959",
"w  c #BC7E69",
"e  c #CD8836",
"r  c #D89D3D",
"t  c #DAA73F",
"y  c #D7A356",
"u  c #DFA454",
"i  c #DFA65A",
"p  c #DFA95C",
"a  c #E2AE44",
"s  c #E2B346",
"d  c #E5BD4A",
"f  c #E9BD49",
"g  c #E0A555",
"h  c #E0A75A",
"j  c #E0A85B",
"k  c #E9AE5D",
"l  c #ECB05F",
"z  c #C6967E",
"x  c #DEAC63",
"c  c #DEAF6B",
"v  c #DDB06D",
"b  c #DDB374",
"n  c #DDB67A",
"m  c #EDB160",
"M  c #E2B16D",
"N  c #F1B562",
"B  c #F5B863",
"V  c #E2B575",
"C  c #E4BA7B",
"Z  c #EDC44B",
"A  c #EFD654",
"S  c #F6D452",
"D  c #F4DA55",
"F  c #F9DB55",
"G  c #FAE157",
"H  c #FBE459",
"J  c #FDEB5B",
"K  c #FFF35E",
"L  c #E9C365",
"P  c #CC9E84",
"I  c #DCBC86",
"U  c #DBBE8B",
"Y  c #D8B99B",
"T  c #E2BE84",
"R  c #DAC395",
"E  c #DAC69B",
"W  c #DAC89E",
"Q  c #E3C086",
"!  c #E3C28C",
"~  c #E4C593",
"^  c #E4CB9C",
"/  c #DBCAA6",
"(  c #D8CFAF",
")  c #D9CCA8",
"_  c #E5D2A9",
"`  c #E7D5AD",
"'  c #E6D4B0",
"]  c #E6D6B2",
"[  c #E7D6B2",
"{  c #E7D7B2",
"}  c #E6D6B3",
"|  c #E6D7B3",
" . c #E7D7B3",
".. c #E7D7B4",
"X. c #E6D7B3",
"o. c #E6D8B3",
"O. c #E7D8B3",
"+. c #E7D8B4",
"@. c #E7D8B5",
"#. c #E7D9B5",
"$. c #E7D9B6",
"%. c #E7D9B7",
"&. c #E7DAB7",
"*. c #E7D8B4",
"=. c #E8DAB4",
"-. c #E7D9B8",
";. c #E7DAB8",
":. c #E7DAB9",
">. c #E7DBBA",
",. c #E7DBBB",
"<. c #E7DDBE",
"1. c #E9DDB9",
"2. c #EADDB8",
"3. c #EADFBA",
"4. c #EADEBA",
"5. c #ECE3BC",
"6. c #EDE4BE",
"7. c #EEE6BE",
"8. c #EDE5C0",
"9. c #EEE7C0",
"0. c #EFE7C1",
"q. c #EEE8C0",
"w. c #F7E7C1",
"e. c #F3F1C8",
/* pixels */
"                                                                                          ",
"                                                      C +._ u l       + + +               ",
"                                                    g O.+.+.+.[ ..@ S K + + +             ",
"                                                  j O.O.+.+.+.+.t S J d + + + { =.=.      ",
"                                                p +.....+.+.+.X 8 F + + + + o +.@.@.      ",
"                                              h [ +.+.=.+.+.X + + S 4 + + + [ +.@.g j     ",
"                                            j T +.+.@.{ =.. * 9 a F H + + 8.+...h j j k   ",
"                                          j g { +.+.@.@., S S F H Z + + P ..+.j h j j j   ",
"                                        h h +.+.+.+.+./ + H S + + + + 0 @.@.j j j j j j   ",
"                                      j h +.+.+.+.+.[ + + X F 9 + + > { { h j j j j j j   ",
"                                  k j j O.+.+.+.+.[ J S S S S X + % +.+.h j j j j j j j   ",
"                                m i j +.+.+.+...+.. S . X + + + . +.+.g j j j j h x j j   ",
"                              N j j ~ ..@.@.{ .., + A S + + + # +.+.j j j h g p j h j I   ",
"                            l j j ......{ @.=.5 d G S S + + X ..+.T j j j j j v j j j g   ",
"                          j j j +.+.+.+.O.=.Z S F 3 $ + + X [ +.:.j j j j j j j p i j h   ",
"                        i j j =.+.+.+.+.=.+ r G + + + + + +.+.+.j p j j j j j h g i / k   ",
"                      i j j +.+.+.+.+./ + + + S $ + + + { { =.h j j j j j g j j j b I     ",
"                    j j ! +.+.+.+.+.< F G H Z s F + + { @.@.u j h j j j j j j j n g i     ",
"                  i j :.+.+.+.+.=.# + S 4 e S H $ X { @.@.i h j j j j j j j h j j x       ",
"              l j j ..+.+.+.+.8.+ + + X S - + + . @.@.{ g j j j j j j j h j E j j j       ",
"            B i g +.+.+.+.+.L 9 4 : = - 4 S + w +.+...i h j j j j j j W j E x j x         ",
"          m p M +.+.+.+.+.. S S S H G F G 1 8.+.+.:.i j j j j j j j j h j j g j           ",
"        h j V +.+.+.+.6.+ + + Z S F + + # ..+...~ p j h p j h j j j j j j j n j           ",
"      i j Q +.+.+...q X ; Z 2 + + S 6 8.+.+.+.u j j j j j j j j j j j j j j j             ",
"    h j V O.+.+.[ O S S S G S S S S [ +.+.+.j j j j j j j j I j j j h I h g               ",
"  i j h [ [ +.+.; S 7 + + + + . 7.+.O.+.^ h j j j j j j j h j j h j j j j N               ",
"  j h +.+.+.2.+ F & + + + + Y | O.O.+.p j j j j j j j j j j p h j j j g k                 ",
"  j ,.+.+.[ + + . S . + P ' o.+.+.+.g j j j h p j j j j j j j h j / h j                   ",
"y p +.+.+.+ + + + 7 D 5.+.+.+.+.O.j j j j j j j j p j j j j j j h j (                     ",
"  ,.+.+.2.+ + + + + o ..+.+.+.[ j j j j j j j j j j j j j j p j n h                       ",
"  [ +.+.2.+ + + + + +.+.+.+.^ j j j p j j h j j j j j x h g h j j N                       ",
"  +.+.+.+.+ + + + X +.+.+.u j j j h g j p / j j j j ) j u g j p N                         ",
"  [ +.+.+.q.+ + + e.=.@.g h j j E j I j j j j j j j j j R j j j                           ",
"  w.+.+.+.+.X + + @.{ h h h j j R j p j j j j h g j h p j R g                             ",
"    +.+.+.+.+.+ . { g j j j j j j U h x j j p j j i h g n j                               ",
"    [ +.+.+.+.2.4.@.h h j j j j i j j / h j j v j / j g j                                 ",
"      +.+.+.+.+.+.+.h R h j j j i j j E p n h j n h j x                                   ",
"      ` +.+.+.+.+...j n h b j h W j j v j j g j g h j                                     ",
"      m +.+.+.+.+.+./ g j W j x j U h n j j E / v N                                       ",
"        p O.+.+.+...j j j E j j j j p b ) j h j                                           ",
"          i <.[ +.[ j h j j j h j p g j j h U                                             ",
"            h u ~ j j E j j j h j p h j x B                                               ",
"                B j j c i x j v x x j h                                                   ",
"                    i j j j c j E i                                                       ",
"                                                                                          "
};
