/* XPM */
static char *_e1d971749614825cced9ff6c0bdc4eaROWPpXzssx3hMf1M[] = {
/* columns rows colors chars-per-pixel */
"45 45 233 2 ",
"   c None",
".  c #1F1109",
"X  c #1C110B",
"o  c #23130A",
"O  c #2A170C",
"+  c #2D1A0D",
"@  c #201007",
"#  c #2C1E13",
"$  c #261E18",
"%  c #321E12",
"&  c #29130A",
"*  c #2C2016",
"=  c #2A231A",
"-  c #342114",
";  c #352A1D",
":  c #38281B",
">  c #39301F",
",  c #362B20",
"<  c #3A3425",
"1  c #422C1C",
"2  c #4B2D1D",
"3  c #44321F",
"4  c #4D321E",
"5  c #56361E",
"6  c #453422",
"7  c #4A3522",
"8  c #4C3D2A",
"9  c #4A3B26",
"0  c #5B3C24",
"q  c #543B28",
"w  c #433C31",
"e  c #492E20",
"r  c #613E22",
"t  c #4D412D",
"y  c #5B422A",
"u  c #4D493A",
"i  c #634125",
"p  c #65442A",
"a  c #6C492C",
"s  c #6B4628",
"d  c #744C2B",
"f  c #754A29",
"g  c #76512F",
"h  c #6B4D33",
"j  c #654A35",
"k  c #724E32",
"l  c #6D5136",
"z  c #6D513B",
"x  c #63543A",
"c  c #755334",
"v  c #7B5534",
"b  c #7C5936",
"n  c #73543A",
"m  c #795539",
"M  c #7C5B3C",
"N  c #76583F",
"B  c #7F603D",
"V  c #595648",
"C  c #785A44",
"Z  c #625647",
"A  c #5E6457",
"S  c #756749",
"D  c #7A6E58",
"F  c #706A53",
"G  c #68736F",
"H  c #815633",
"J  c #825B35",
"K  c #825B3A",
"L  c #925E2B",
"P  c #85633E",
"I  c #8A643D",
"U  c #88653B",
"Y  c #906C3F",
"T  c #AD773A",
"R  c #805D40",
"E  c #846543",
"W  c #8C6442",
"Q  c #8D6B43",
"!  c #89694B",
"~  c #936C44",
"^  c #936B4B",
"/  c #957246",
"(  c #9B7244",
")  c #94724B",
"_  c #9B754A",
"`  c #9D7A4C",
"'  c #886D57",
"]  c #897257",
"[  c #947455",
"{  c #9C7654",
"}  c #9C7954",
"|  c #957A5D",
" . c #9C7C5B",
".. c #96775A",
"X. c #906C55",
"o. c #A37C4C",
"O. c #A37A47",
"+. c #A27D53",
"@. c #A27D5B",
"#. c #AB774A",
"$. c #887665",
"%. c #9B7D62",
"&. c #957A62",
"*. c #887A78",
"=. c #937C75",
"-. c #826A68",
";. c #A37E64",
":. c #9C825C",
">. c #B7844D",
",. c #A28155",
"<. c #A3825D",
"1. c #A9835D",
"2. c #AB895E",
"3. c #B1895B",
"4. c #BA915B",
"5. c #9D8163",
"6. c #978369",
"7. c #93857C",
"8. c #97877B",
"9. c #928E7C",
"0. c #A48464",
"q. c #AA8463",
"w. c #AB8966",
"e. c #A4856A",
"r. c #AC8C6C",
"t. c #A8886B",
"y. c #B28B6A",
"u. c #B58B67",
"i. c #BA966A",
"p. c #A58D71",
"a. c #A4867A",
"s. c #B18B73",
"d. c #A79577",
"f. c #B49473",
"g. c #BA9474",
"h. c #BB9B74",
"j. c #BC9B7B",
"k. c #B8977B",
"l. c #BDA37B",
"z. c #C39459",
"x. c #C39C6C",
"c. c #C29565",
"v. c #C29C74",
"b. c #C8A36F",
"n. c #C4A374",
"m. c #C4A57C",
"M. c #CAA67D",
"N. c #CAAA7B",
"B. c #CBA472",
"V. c #968A83",
"C. c #9A8A84",
"Z. c #9B8D8B",
"A. c #978785",
"S. c #9D928C",
"D. c #9B9688",
"F. c #998F91",
"G. c #9E9898",
"H. c #A18E8D",
"J. c #A28B84",
"K. c #A39485",
"L. c #A2948C",
"P. c #A7978A",
"I. c #BE9E86",
"U. c #A39593",
"Y. c #A49B93",
"T. c #AB9D94",
"R. c #A59B99",
"E. c #AB9D9A",
"W. c #AE9694",
"Q. c #B19D97",
"!. c #9BA18C",
"~. c #ACA295",
"^. c #ADA29C",
"/. c #A8A599",
"(. c #B2A39C",
"). c #B3AA9D",
"_. c #B5A88C",
"`. c #ABA6A1",
"'. c #AEABA8",
"]. c #B3A5A1",
"[. c #B4ABA4",
"{. c #BAAEA6",
"}. c #B1AEAC",
"|. c #B8AEAC",
" X c #B4B1AD",
".X c #BBB3AC",
"XX c #B1B4A7",
"oX c #B0AFB0",
"OX c #B4B4B3",
"+X c #BCB9B5",
"@X c #BDBCBB",
"#X c #B9B7B5",
"$X c #AFB0B2",
"%X c #C09D86",
"&X c #C4A583",
"*X c #C9A682",
"=X c #C6AA83",
"-X c #CBAC84",
";X c #C4A48A",
":X c #C6AB8C",
">X c #CBAD8B",
",X c #CAA689",
"<X c #D1AB87",
"1X c #CDB28B",
"2X c #CDB085",
"3X c #D1B287",
"4X c #D1B38B",
"5X c #D6B68C",
"6X c #CAAD92",
"7X c #C6AD94",
"8X c #CCB393",
"9X c #CCB799",
"0X c #D2B594",
"qX c #D3B994",
"wX c #D2B59A",
"eX c #D4BB9D",
"rX c #D8BC9E",
"tX c #D0AF91",
"yX c #D5BDA3",
"uX c #D6BCA5",
"iX c #CDBBA6",
"pX c #D6C19D",
"aX c #D9C39F",
"sX c #D6C3A4",
"dX c #DAC3A4",
"fX c #D6C4A9",
"gX c #D9C5AB",
"hX c #DAC9AC",
"jX c #D7C8AC",
"kX c #DACAB4",
"lX c #E1CEBB",
"zX c #D1DBD9",
"xX c #C6C8C8",
/* pixels */
"                  dXiX                                          S.&.!                     ",
"                  dXuX                S.-.n g f f g H K ' J.=.7.Y.T.oX                    ",
"                  gXrXg m H m &.J.=..X[.J.-.J.[.}.E.V.R.K.=.W.8.7.E.^. X}.                ",
"                  hXuXP.A.Z.(.|.H.F.C.@X.XF.*.H.OXOXE.V.^.T.=.T.H.V./.'.|.OX              ",
"                9XhXrX7 Q.S.Y.[.{.W.Z.Z.@X#XZ.*.L.#XOX`.V.).Y.8.T.T.8.V.'.].oX            ",
"              5.K % T T L E.R.^.{.].W.G.J.@X+XA.-.Z.#X+X/.7./.~.K.Q.(.8.=.'.`.$X          ",
"            ) c % z.z.z.z.z.U.U.(..X{.W.Z.a.@X+XG.7.J.+XOX(.V.L.~.K.Y.(.V.7.'.`.OX        ",
"        yX) j ( z.b.-X-X-X-Xn.F.G.T. X(.W.Z.C.@X#XK.Z.Z.@XOX^.Y.D.~.K.S.~.7.7.[.`.OX      ",
"      wX_ 8 #.x.M.*XM.rXgX;Xm.N.G.Z.^.{..XQ.A.J.@X@XS.S.H.iX$XG.R.8.~.D.D.(.8.8.^.'.oX    ",
"    1X/ 8 #.c.x.m.v.v.M.M.M.1X,X&XA.U.(..X{.E.*.H.@X+XG.C.U.xXoXK.Y.7.D.K.V.T.C.V..X'.$X@X",
"  tXf s >.c.x.n.x.M.M.<X6XX.-X-XM.x.U.Z.(.{..XQ.U.J.iX@XK.C.S.xX X^.Y.8.Y.P.V.~.J.V.Y.D   ",
"_.D   4.N.v.j.h.*X%X&XR 1X-X6X-XM.,X&XR.R.(..X.XQ.U.U.@X+XR.7.V.zX X X~.7.D.S ' % 1 0     ",
"      1XqX4XjXsXdXgXkX:X1X8X&X&X-X:X,X&XR.G.(. X+XQ.A.K.@X+X(.Z.7.zX8.! - 2 4 4 2 0 s     ",
"      5XaXjXjXjXsXgXjXhXhXhXfXsXkXjX*X*Xj.U.U.).{. X].V.R.+X6.i 1 4 q r 0 0 r 0 0 i H     ",
"      hXpXqXpXaXaXsX$.X X jXjXpXhXhXfXeXeX1XL.K.].).:.] 1 q 4 i i d p r i p i { 0.%.K     ",
"      rXN.9XjXsXkX9 o o X X jXhXpXhXgXaXpXrX&X0 7 0 i s f a r f s f Z H +.t.e.{ 5.%.      ",
"      =X3X1X:X-XeX+ * % * * * sXsXjXsX9XeXpXl.g H f s a s v v v @.t.u.0.0.} } | | &.      ",
"      m.n.N.N.N.l - * @ @ X o 5XeXsXaX>XeXpXn.U H J H g 1.r.r.w.0.@.0.0.%. .&.| W Q       ",
"      -X3Xi.n.2Xx . o @ o @ @ o N.1X1X8X8XpXh.U J @.f.h.r.w.w.w.<.@. . .5.W _ ~ ~ ~       ",
"      uXjXi.b.N.F . o o o @ o o n.-X2XN.n.m.m.U y.i.r.w.p.q.0.0.e.%.W ` ( _ / ~ / Q       ",
"      8XsXsXuXhXD o @ o O o o O 1XN.n.x.n.N.=XU 1.y.0.<.0.0. .W _ :.` ( _ ( / / Q P       ",
"      uXsX:X6XwXS o o + + O O o N.2X3X3.2X3X1XU q.q.t.0.W <.o._ ,.` ( ` / ) ) b q j       ",
"      sXqX8XpX1XN + + + + & + + j.l.8X2.B.N.1XI <.K @.<.( ,.o.` O.` ` @.E l p z a d       ",
"      4X3XqX8XpXS + + + O @ % > ;Xl.f.h.f.j.1Xv 1.+.E +.O.o.O.,.:.) E c Z p d h h 8       ",
"      qX4X2X3X3XS O o 9 7 3 3 3 0X0X9XwX8X6X4XQ o.O.,.o.2.+._ Q N c M k k c n a p v       ",
"      8X1X3X4X4XD 6 6 > : 3 3 : -X1X8X8X1X8X4XQ O.+.+._ / E P n x c v g a c ~ 5.| v       ",
"      8X1X2X4X4X] 6 1 6 4 7 3 % uXj.k.m.I.;X-XQ o.( Q C C K v C v b b N { p.0.| | b       ",
"      f.r.7X&X-XS 6 6 9 : + + - s.7XeXaXkXh.=XU R K n m k z J J c c <.<.0.5.| 5.| J       ",
"      f.y.g.s.u.y % O # % - % % wX0X0XiXI.wXM.Q M c n K J K R @.d.p.w. .6.:.5.| ! v       ",
"      -Xj.u.y.u.y % o % O % O O eX0XwXwXwXyXl.I c K v v K @.f.q.r.,.e.e.5.6.[ [ [ c       ",
"      3.,X;XtX%X0 - % % # % 6 6 6XgXgXuXuXrXm.P H W c q.f.0.t.e.p.] 6.0.! | [ [ ..c       ",
"      n.t.I.k.>Xz + # 8 8 8 6 6 6XwXyXlXyXfX-XP @.r.u.w.<.p.e.6.0.q. .%.6.} } 9.n v       ",
"      n.;.;.t.y.z 8 8 8 8 9 , : tX>X,X,X<XrXn.E w.q.0.0.e.^ @.<.0. . .} } d.C l x d       ",
"      n.wXj.;.v.y 8 8 8 < > = = 0XdX5X5X<XtXx.P w.q.0.<.@.<.$.:. . .%.d.E z z p h q       ",
"      n.;XuXuX;Xz , , ; ; = , < M.dXdXrXrXrXi.E q.0.{ +.@.0.5.0. .d.B z z n l h x         ",
"      i.;X%XI.,X' = ; : ; , , < 1XeXdX4XuXuXu.W ) @.@.q.5.@.:.d.E N n h k h c             ",
"      l.e.;X%X;XS = = , ; w u V =X>X4X0X5XaX2.I q. .5.} @.p.&.M z z c d h                 ",
"      l.%.;.s.s.j X = < u u V A 1Xn.i.=X-X4X1.J e.+.@.p.P.C M U c v c                     ",
"            &.t.).!.9.w V V Z V -X2X=X-X-Xm.} ' @.e.P.M b b b v c z                       ",
"                0XqXwX).D.A G A g.k.iXN.N.1X~ / _.M J n M b c b                           ",
"                      eX:XyXXXD.k.q.u.g.g.7X~ b K C C v v m                               ",
"                          8XsXeX7Xk.t.s.u.+.W m C v c v                                   ",
"                                yXuXyX7XI.s.I c K v n                                     ",
"                                      uXuXuXI h v                                         ",
"                                          6XQ                                             "
};
